<?xml version="1.0" standalone="no"?>
<!DOCTYPE svg PUBLIC "-//W3C//DTD SVG 20010904//EN"
 "http://www.w3.org/TR/2001/REC-SVG-20010904/DTD/svg10.dtd">
<svg version="1.0" xmlns="http://www.w3.org/2000/svg"
 width="261.000000pt" height="261.000000pt" viewBox="0 0 261.000000 261.000000"
 preserveAspectRatio="xMidYMid meet">
<metadata>
Created by potrace 1.11, written by Peter Selinger 2001-2013
</metadata>
<g transform="translate(0.000000,261.000000) scale(0.100000,-0.100000)"
fill="#000000" stroke="none">
<path d="M1170 2599 c-168 -20 -294 -56 -435 -124 -356 -174 -607 -492 -700
-885 -28 -119 -36 -278 -22 -425 53 -565 500 -1043 1067 -1141 521 -89 1032
135 1322 581 78 120 156 311 174 424 3 20 8 39 10 43 9 14 19 159 17 258 -7
637 -490 1179 -1128 1266 -68 9 -237 11 -305 3z"/>
</g>
</svg>
